<svg width="1920" height="1348" viewBox="0 0 1920 1348" fill="none" xmlns="http://www.w3.org/2000/svg">
<path d="M249.297 191.25H285.781C293.385 191.25 299.87 192.552 305.234 195.156C310.599 197.76 314.714 201.615 317.578 206.719C320.443 211.823 321.875 218.125 321.875 225.625C321.875 231.771 321.042 237.031 319.375 241.406C317.708 245.729 315.339 249.349 312.266 252.266C309.193 255.13 305.521 257.422 301.25 259.141L294.297 263.281H264.688L264.609 244.297H285.156C288.281 244.297 290.859 243.62 292.891 242.266C294.974 240.859 296.51 238.906 297.5 236.406C298.542 233.854 299.062 230.885 299.062 227.5C299.062 223.906 298.594 220.833 297.656 218.281C296.771 215.677 295.339 213.698 293.359 212.344C291.432 210.938 288.906 210.234 285.781 210.234H272.188V305H249.297V191.25ZM300.938 305L280.078 254.297L304.062 254.219L325.391 303.906V305H300.938ZM370.781 306.562C365 306.562 359.87 305.677 355.391 303.906C350.964 302.135 347.214 299.583 344.141 296.25C341.068 292.865 338.724 288.776 337.109 283.984C335.495 279.193 334.688 273.724 334.688 267.578V260.625C334.688 253.75 335.469 247.734 337.031 242.578C338.594 237.37 340.807 232.995 343.672 229.453C346.536 225.911 350.052 223.281 354.219 221.562C358.438 219.792 363.203 218.906 368.516 218.906C373.828 218.906 378.49 219.792 382.5 221.562C386.562 223.281 389.922 225.885 392.578 229.375C395.234 232.812 397.24 237.083 398.594 242.188C399.948 247.292 400.625 253.229 400.625 260V270H343.984V254.609H379.141V252.656C379.141 249.219 378.776 246.354 378.047 244.062C377.318 241.719 376.172 239.974 374.609 238.828C373.047 237.682 370.964 237.109 368.359 237.109C366.172 237.109 364.323 237.552 362.812 238.438C361.302 239.323 360.104 240.703 359.219 242.578C358.333 244.453 357.682 246.901 357.266 249.922C356.849 252.891 356.641 256.458 356.641 260.625V267.578C356.641 271.484 356.979 274.766 357.656 277.422C358.333 280.026 359.323 282.161 360.625 283.828C361.979 285.443 363.62 286.615 365.547 287.344C367.474 288.021 369.714 288.359 372.266 288.359C376.12 288.359 379.583 287.682 382.656 286.328C385.781 284.922 388.438 283.021 390.625 280.625L399.375 293.906C397.865 295.885 395.781 297.865 393.125 299.844C390.469 301.823 387.292 303.438 383.594 304.688C379.896 305.938 375.625 306.562 370.781 306.562ZM450.547 285.547V246.484C450.547 243.932 450.234 241.901 449.609 240.391C449.036 238.88 448.151 237.786 446.953 237.109C445.807 236.38 444.401 236.016 442.734 236.016C440.859 236.016 439.297 236.406 438.047 237.188C436.797 237.969 435.859 239.089 435.234 240.547C434.661 242.005 434.375 243.75 434.375 245.781H412.422C412.422 242.135 413.125 238.698 414.531 235.469C415.938 232.188 417.995 229.323 420.703 226.875C423.464 224.375 426.745 222.422 430.547 221.016C434.349 219.609 438.62 218.906 443.359 218.906C448.984 218.906 453.984 219.87 458.359 221.797C462.734 223.672 466.198 226.667 468.75 230.781C471.302 234.896 472.578 240.234 472.578 246.797V284.453C472.578 289.193 472.812 293.047 473.281 296.016C473.802 298.984 474.557 301.536 475.547 303.672V305H453.516C452.526 302.656 451.771 299.74 451.25 296.25C450.781 292.708 450.547 289.141 450.547 285.547ZM453.203 253.359L453.281 266.484H445.234C443.151 266.484 441.328 266.823 439.766 267.5C438.255 268.177 436.979 269.141 435.938 270.391C434.896 271.589 434.115 272.995 433.594 274.609C433.125 276.224 432.891 277.943 432.891 279.766C432.891 281.797 433.177 283.516 433.75 284.922C434.323 286.328 435.182 287.396 436.328 288.125C437.474 288.854 438.828 289.219 440.391 289.219C442.786 289.219 444.87 288.724 446.641 287.734C448.411 286.745 449.714 285.547 450.547 284.141C451.432 282.734 451.719 281.432 451.406 280.234L456.406 288.75C455.781 290.677 454.922 292.682 453.828 294.766C452.786 296.849 451.458 298.776 449.844 300.547C448.229 302.318 446.224 303.776 443.828 304.922C441.484 306.016 438.698 306.562 435.469 306.562C430.938 306.562 426.797 305.521 423.047 303.438C419.297 301.354 416.328 298.438 414.141 294.688C412.005 290.938 410.938 286.484 410.938 281.328C410.938 277.057 411.615 273.203 412.969 269.766C414.375 266.276 416.458 263.333 419.219 260.938C421.979 258.49 425.469 256.615 429.688 255.312C433.906 254.01 438.854 253.359 444.531 253.359H453.203ZM519.297 288.359C521.328 288.359 523.073 287.943 524.531 287.109C526.042 286.276 527.188 284.922 527.969 283.047C528.75 281.172 529.167 278.75 529.219 275.781H549.766C549.766 282.135 548.411 287.63 545.703 292.266C543.047 296.849 539.453 300.391 534.922 302.891C530.443 305.339 525.365 306.562 519.688 306.562C514.01 306.562 509.062 305.651 504.844 303.828C500.625 302.005 497.135 299.349 494.375 295.859C491.667 292.37 489.609 288.125 488.203 283.125C486.849 278.073 486.172 272.292 486.172 265.781V259.609C486.172 253.203 486.849 247.474 488.203 242.422C489.609 237.37 491.667 233.099 494.375 229.609C497.135 226.12 500.599 223.464 504.766 221.641C508.984 219.818 513.932 218.906 519.609 218.906C525.703 218.906 530.99 220.182 535.469 222.734C539.948 225.234 543.438 228.932 545.938 233.828C548.49 238.724 549.766 244.766 549.766 251.953H529.219C529.167 248.724 528.776 246.042 528.047 243.906C527.37 241.719 526.302 240.052 524.844 238.906C523.438 237.708 521.562 237.109 519.219 237.109C516.771 237.109 514.792 237.63 513.281 238.672C511.823 239.661 510.703 241.12 509.922 243.047C509.193 244.922 508.698 247.266 508.438 250.078C508.177 252.891 508.047 256.068 508.047 259.609V265.781C508.047 269.583 508.151 272.891 508.359 275.703C508.62 278.464 509.115 280.807 509.844 282.734C510.625 284.609 511.745 286.016 513.203 286.953C514.714 287.891 516.745 288.359 519.297 288.359ZM599.219 220.469V236.953H556.094V220.469H599.219ZM566.016 199.609H587.812V279.219C587.812 281.562 588.047 283.359 588.516 284.609C588.984 285.859 589.688 286.745 590.625 287.266C591.615 287.734 592.917 287.969 594.531 287.969C595.625 287.969 596.641 287.917 597.578 287.812C598.516 287.656 599.219 287.5 599.688 287.344V304.453C597.969 305.13 596.146 305.651 594.219 306.016C592.344 306.38 590.104 306.562 587.5 306.562C583.125 306.562 579.323 305.729 576.094 304.062C572.917 302.396 570.443 299.74 568.672 296.094C566.901 292.396 566.016 287.552 566.016 281.562V199.609ZM634.375 220.469V305H612.422V220.469H634.375ZM611.406 198.594C611.406 195.208 612.474 192.422 614.609 190.234C616.797 187.995 619.714 186.875 623.359 186.875C627.057 186.875 629.974 187.995 632.109 190.234C634.245 192.422 635.312 195.208 635.312 198.594C635.312 201.927 634.219 204.714 632.031 206.953C629.896 209.141 627.031 210.234 623.438 210.234C619.74 210.234 616.797 209.141 614.609 206.953C612.474 204.714 611.406 201.927 611.406 198.594ZM678.828 305H656.875V213.125C656.875 206.615 657.995 201.172 660.234 196.797C662.474 192.422 665.625 189.089 669.688 186.797C673.802 184.505 678.672 183.359 684.297 183.359C686.12 183.359 687.839 183.516 689.453 183.828C691.12 184.089 692.734 184.453 694.297 184.922L694.062 202.344C693.385 202.135 692.578 201.979 691.641 201.875C690.703 201.771 689.714 201.719 688.672 201.719C686.589 201.719 684.792 202.161 683.281 203.047C681.823 203.932 680.703 205.208 679.922 206.875C679.193 208.542 678.828 210.625 678.828 213.125V305ZM692.031 220.469V236.953H646.562V220.469H692.031ZM725.469 295.312L743.125 220.469H765.938L738.125 317.656C737.5 319.792 736.641 322.083 735.547 324.531C734.453 327.031 732.995 329.375 731.172 331.562C729.401 333.802 727.161 335.625 724.453 337.031C721.745 338.438 718.49 339.141 714.688 339.141C712.76 339.141 711.198 339.01 710 338.75C708.854 338.542 707.396 338.177 705.625 337.656V320.625C706.094 320.625 706.536 320.625 706.953 320.625C707.422 320.677 707.865 320.703 708.281 320.703C710.729 320.703 712.682 320.365 714.141 319.688C715.599 319.062 716.771 318.073 717.656 316.719C718.594 315.365 719.375 313.672 720 311.641L725.469 295.312ZM720.938 220.469L734.062 281.094L737.031 305.781L722.266 307.188L697.5 220.469H720.938ZM784.688 191.25H804.766L827.969 269.062L851.094 191.25H868.828L836.484 305H819.375L784.688 191.25ZM776.562 191.25H795.703L798.672 266.25V305H776.562V191.25ZM860.078 191.25H879.297V305H857.266V266.25L860.078 191.25ZM934.141 285.547V246.484C934.141 243.932 933.828 241.901 933.203 240.391C932.63 238.88 931.745 237.786 930.547 237.109C929.401 236.38 927.995 236.016 926.328 236.016C924.453 236.016 922.891 236.406 921.641 237.188C920.391 237.969 919.453 239.089 918.828 240.547C918.255 242.005 917.969 243.75 917.969 245.781H896.016C896.016 242.135 896.719 238.698 898.125 235.469C899.531 232.188 901.589 229.323 904.297 226.875C907.057 224.375 910.339 222.422 914.141 221.016C917.943 219.609 922.214 218.906 926.953 218.906C932.578 218.906 937.578 219.87 941.953 221.797C946.328 223.672 949.792 226.667 952.344 230.781C954.896 234.896 956.172 240.234 956.172 246.797V284.453C956.172 289.193 956.406 293.047 956.875 296.016C957.396 298.984 958.151 301.536 959.141 303.672V305H937.109C936.12 302.656 935.365 299.74 934.844 296.25C934.375 292.708 934.141 289.141 934.141 285.547ZM936.797 253.359L936.875 266.484H928.828C926.745 266.484 924.922 266.823 923.359 267.5C921.849 268.177 920.573 269.141 919.531 270.391C918.49 271.589 917.708 272.995 917.188 274.609C916.719 276.224 916.484 277.943 916.484 279.766C916.484 281.797 916.771 283.516 917.344 284.922C917.917 286.328 918.776 287.396 919.922 288.125C921.068 288.854 922.422 289.219 923.984 289.219C926.38 289.219 928.464 288.724 930.234 287.734C932.005 286.745 933.307 285.547 934.141 284.141C935.026 282.734 935.312 281.432 935 280.234L940 288.75C939.375 290.677 938.516 292.682 937.422 294.766C936.38 296.849 935.052 298.776 933.438 300.547C931.823 302.318 929.818 303.776 927.422 304.922C925.078 306.016 922.292 306.562 919.062 306.562C914.531 306.562 910.391 305.521 906.641 303.438C902.891 301.354 899.922 298.438 897.734 294.688C895.599 290.938 894.531 286.484 894.531 281.328C894.531 277.057 895.208 273.203 896.562 269.766C897.969 266.276 900.052 263.333 902.812 260.938C905.573 258.49 909.062 256.615 913.281 255.312C917.5 254.01 922.448 253.359 928.125 253.359H936.797ZM994.219 239.297V305H972.344V220.469H992.969L994.219 239.297ZM1014.14 219.844L1013.83 241.641C1012.84 241.432 1011.64 241.276 1010.23 241.172C1008.88 241.068 1007.68 241.016 1006.64 241.016C1004.19 241.016 1002.11 241.406 1000.39 242.188C998.672 242.917 997.24 244.036 996.094 245.547C995 247.005 994.167 248.828 993.594 251.016C993.021 253.203 992.682 255.677 992.578 258.438L988.438 256.875C988.438 251.354 988.854 246.302 989.688 241.719C990.573 237.083 991.875 233.073 993.594 229.688C995.312 226.25 997.37 223.594 999.766 221.719C1002.21 219.844 1004.97 218.906 1008.05 218.906C1009.09 218.906 1010.18 219.01 1011.33 219.219C1012.53 219.375 1013.46 219.583 1014.14 219.844ZM1047.19 184.922V305H1025.31V184.922H1047.19ZM1091.64 220.469L1061.88 262.5L1043.98 282.578L1036.25 265.938L1050 245.859L1065.55 220.469H1091.64ZM1068.83 305L1050.39 266.172L1065.47 252.266L1093.91 305H1068.83ZM1134.38 306.562C1128.59 306.562 1123.46 305.677 1118.98 303.906C1114.56 302.135 1110.81 299.583 1107.73 296.25C1104.66 292.865 1102.32 288.776 1100.7 283.984C1099.09 279.193 1098.28 273.724 1098.28 267.578V260.625C1098.28 253.75 1099.06 247.734 1100.62 242.578C1102.19 237.37 1104.4 232.995 1107.27 229.453C1110.13 225.911 1113.65 223.281 1117.81 221.562C1122.03 219.792 1126.8 218.906 1132.11 218.906C1137.42 218.906 1142.08 219.792 1146.09 221.562C1150.16 223.281 1153.52 225.885 1156.17 229.375C1158.83 232.812 1160.83 237.083 1162.19 242.188C1163.54 247.292 1164.22 253.229 1164.22 260V270H1107.58V254.609H1142.73V252.656C1142.73 249.219 1142.37 246.354 1141.64 244.062C1140.91 241.719 1139.77 239.974 1138.2 238.828C1136.64 237.682 1134.56 237.109 1131.95 237.109C1129.77 237.109 1127.92 237.552 1126.41 238.438C1124.9 239.323 1123.7 240.703 1122.81 242.578C1121.93 244.453 1121.28 246.901 1120.86 249.922C1120.44 252.891 1120.23 256.458 1120.23 260.625V267.578C1120.23 271.484 1120.57 274.766 1121.25 277.422C1121.93 280.026 1122.92 282.161 1124.22 283.828C1125.57 285.443 1127.21 286.615 1129.14 287.344C1131.07 288.021 1133.31 288.359 1135.86 288.359C1139.71 288.359 1143.18 287.682 1146.25 286.328C1149.38 284.922 1152.03 283.021 1154.22 280.625L1162.97 293.906C1161.46 295.885 1159.38 297.865 1156.72 299.844C1154.06 301.823 1150.89 303.438 1147.19 304.688C1143.49 305.938 1139.22 306.562 1134.38 306.562ZM1213.75 220.469V236.953H1170.62V220.469H1213.75ZM1180.55 199.609H1202.34V279.219C1202.34 281.562 1202.58 283.359 1203.05 284.609C1203.52 285.859 1204.22 286.745 1205.16 287.266C1206.15 287.734 1207.45 287.969 1209.06 287.969C1210.16 287.969 1211.17 287.917 1212.11 287.812C1213.05 287.656 1213.75 287.5 1214.22 287.344V304.453C1212.5 305.13 1210.68 305.651 1208.75 306.016C1206.88 306.38 1204.64 306.562 1202.03 306.562C1197.66 306.562 1193.85 305.729 1190.62 304.062C1187.45 302.396 1184.97 299.74 1183.2 296.094C1181.43 292.396 1180.55 287.552 1180.55 281.562V199.609Z" fill="white"/>
</svg>
